<?xml version="1.0" encoding="UTF-8" standalone="no"?>
<!DOCTYPE svg PUBLIC "-//W3C//DTD SVG 1.1//EN" "http://www.w3.org/Graphics/SVG/1.1/DTD/svg11.dtd">
<svg width="100%" height="100%" viewBox="0 0 512 512" version="1.1" xmlns="http://www.w3.org/2000/svg" xmlns:xlink="http://www.w3.org/1999/xlink" xml:space="preserve" xmlns:serif="http://www.serif.com/" style="fill-rule:evenodd;clip-rule:evenodd;stroke-linejoin:round;stroke-miterlimit:2;">
    <g id="Base" transform="matrix(4.07794,0,0,4.97309,-551.431,-1064.36)">
        <path d="M273,220.931C273,211.586 263.748,204 252.353,204L143.647,204C132.252,204 123,211.586 123,220.931L123,310.069C123,319.414 132.252,327 143.647,327L252.353,327C263.748,327 273,319.414 273,310.069L273,220.931Z" style="fill:rgb(105,28,194);"/>
    </g>
    <path d="M440.622,78L536,290L561.845,536L136.5,530.845L71.378,434L192.5,495.277L306.622,429L306.622,301L210.225,239.277L198.378,219L319.5,280.277L433.622,214L440.622,78Z" style="fill:rgb(9,9,9);fill-opacity:0.47;"/>
    <g id="Tasks">
        <g id="Bottom">
            <g transform="matrix(1,0,0,1,-79.3642,52.7232)">
                <path d="M271.864,179L385.986,244.888L385.986,376.665L271.864,442.554L157.742,376.665L157.742,244.888L271.864,179Z" style="fill:rgb(78,78,78);fill-opacity:0.29;"/>
                <path d="M393.32,240.654L393.32,380.899L271.864,451.021L150.409,380.899L150.409,240.654L271.864,170.532L393.32,240.654ZM165.076,249.122L165.076,372.431L271.864,434.086L378.653,372.431L378.653,249.122L271.864,187.468L165.076,249.122Z" style="fill:rgb(255,243,236);"/>
            </g>
            <g transform="matrix(1.37931,0,0,1.37931,-41.1594,-145.1)">
                <path d="M153.732,319.572C149.949,318.809 146.051,318.809 142.268,319.572L140.138,324.638C137.028,325.684 134.159,327.34 131.699,329.51L126.247,328.822C123.694,331.717 121.746,335.092 120.515,338.75L123.836,343.128C123.188,346.344 123.188,349.656 123.836,352.872L120.515,357.25C121.746,360.908 123.694,364.283 126.247,367.178L131.699,366.49C134.159,368.66 137.028,370.316 140.138,371.362L142.268,376.428C146.051,377.191 149.949,377.191 153.732,376.428L155.862,371.362C158.972,370.316 161.841,368.66 164.301,366.49L169.753,367.178C172.306,364.283 174.254,360.908 175.485,357.25L172.164,352.872C172.812,349.656 172.812,346.344 172.164,343.128L175.485,338.75C174.254,335.092 172.306,331.717 169.753,328.822L164.301,329.51C161.841,327.34 158.972,325.684 155.862,324.638L153.732,319.572ZM148,335.53C154.882,335.53 160.47,341.118 160.47,348C160.47,354.882 154.882,360.47 148,360.47C141.118,360.47 135.53,354.882 135.53,348C135.53,341.118 141.118,335.53 148,335.53Z" style="fill:white;"/>
            </g>
            <g transform="matrix(1.37931,0,0,1.37931,13.9513,-87.9)">
                <path d="M153.732,319.572C149.949,318.809 146.051,318.809 142.268,319.572L140.138,324.638C137.028,325.684 134.159,327.34 131.699,329.51L126.247,328.822C123.694,331.717 121.746,335.092 120.515,338.75L123.836,343.128C123.188,346.344 123.188,349.656 123.836,352.872L120.515,357.25C121.746,360.908 123.694,364.283 126.247,367.178L131.699,366.49C134.159,368.66 137.028,370.316 140.138,371.362L142.268,376.428C146.051,377.191 149.949,377.191 153.732,376.428L155.862,371.362C158.972,370.316 161.841,368.66 164.301,366.49L169.753,367.178C172.306,364.283 174.254,360.908 175.485,357.25L172.164,352.872C172.812,349.656 172.812,346.344 172.164,343.128L175.485,338.75C174.254,335.092 172.306,331.717 169.753,328.822L164.301,329.51C161.841,327.34 158.972,325.684 155.862,324.638L153.732,319.572ZM148,335.53C154.882,335.53 160.47,341.118 160.47,348C160.47,354.882 154.882,360.47 148,360.47C141.118,360.47 135.53,354.882 135.53,348C135.53,341.118 141.118,335.53 148,335.53Z" style="fill:white;"/>
            </g>
        </g>
        <g id="Top">
            <g transform="matrix(1,0,0,1,47.6358,-162.277)">
                <path d="M271.864,179L385.986,244.888L385.986,376.665L271.864,442.554L157.742,376.665L157.742,244.888L271.864,179Z" style="fill:rgb(38,38,38);fill-opacity:0.29;"/>
                <path d="M393.32,240.654L393.32,380.899L271.864,451.021L150.409,380.899L150.409,240.654L271.864,170.532L393.32,240.654ZM165.076,249.122L165.076,372.431L271.864,434.086L378.653,372.431L378.653,249.122L271.864,187.468L165.076,249.122Z" style="fill:rgb(255,243,236);"/>
            </g>
            <g transform="matrix(1.91379,0,0,1.91379,33.3702,-517)">
                <path d="M151.141,319.171C149.053,318.943 146.947,318.943 144.859,319.171L143.658,323.735C141.901,324.05 140.183,324.554 138.534,325.24L135.056,322.049C133.177,322.986 131.405,324.125 129.771,325.445L131.229,329.935C129.92,331.149 128.748,332.503 127.732,333.97L123.081,333.167C122.006,334.971 121.131,336.887 120.471,338.881L124.124,341.87C123.68,343.599 123.426,345.371 123.364,347.155L119.017,348.994C119.089,351.093 119.389,353.178 119.911,355.212L124.6,355.751C125.162,357.446 125.905,359.074 126.819,360.608L124.155,364.505C125.351,366.232 126.73,367.824 128.269,369.253L132.505,367.171C133.894,368.294 135.4,369.262 136.998,370.058L136.864,374.777C138.803,375.583 140.824,376.177 142.892,376.547L145.33,372.505C147.105,372.698 148.895,372.698 150.67,372.505L153.108,376.547C155.176,376.177 157.197,375.583 159.136,374.777L159.002,370.058C160.6,369.262 162.106,368.294 163.495,367.171L167.731,369.253C169.27,367.824 170.649,366.232 171.845,364.505L169.181,360.608C170.095,359.074 170.838,357.446 171.4,355.751L176.089,355.212C176.611,353.178 176.911,351.093 176.983,348.994L172.636,347.155C172.574,345.371 172.32,343.599 171.876,341.87L175.529,338.881C174.869,336.887 173.994,334.971 172.919,333.167L168.268,333.97C167.252,332.503 166.08,331.149 164.771,329.935L166.229,325.445C164.595,324.125 162.823,322.986 160.944,322.049L157.466,325.24C155.817,324.554 154.099,324.05 152.342,323.735L151.141,319.171ZM148,335.53C154.882,335.53 160.47,341.118 160.47,348C160.47,354.882 154.882,360.47 148,360.47C141.118,360.47 135.53,354.882 135.53,348C135.53,341.118 141.118,335.53 148,335.53Z" style="fill:white;"/>
            </g>
        </g>
    </g>
</svg>
